<svg width="33" height="32" viewBox="0 0 33 32" fill="none" xmlns="http://www.w3.org/2000/svg">
<path d="M29.3161 22.6626C28.7493 20.4323 27.0492 18.9437 24.6548 18.9616C22.3108 18.9791 21.0095 20.4429 20.8344 22.0652C20.7054 23.2616 21.1705 24.2222 21.8449 24.615C23.0849 25.3372 23.9555 24.1069 23.4723 23.6503C23.1611 23.3562 23.0169 23.1074 23.0848 22.6626C23.1527 22.2178 23.4985 21.7728 24.3149 21.7728C25.1313 21.7728 25.819 22.3458 25.9655 23.5318C26.1383 24.9311 25.2016 26.4462 23.5485 26.7895C21.4556 27.2241 19.3447 26.1268 18.5966 24.36C17.8485 22.5931 18.0516 19.838 19.841 18.1531C21.2585 16.8184 23.0931 16.3266 24.6547 16.3266L29.8786 16.5519C30.2653 16.5686 30.6105 16.3157 30.7047 15.947L32.9378 6.99714C32.954 6.93342 32.9622 6.86807 32.9622 6.80242C32.9622 6.36033 32.6493 6.00193 32.1994 6.00193H22.6479C22.617 6.00193 22.5861 5.99849 22.5561 5.99166C22.3369 5.94184 22.2002 5.7269 22.251 5.51152L23.3176 0.981001C23.3316 0.921852 23.3386 0.861326 23.3386 0.800612C23.3386 0.358401 22.9738 0 22.5238 0H12.6386C12.0862 0 11.6024 0.363971 11.4585 0.887927L10.3681 5.40994C10.2721 5.75926 9.94961 6.00187 9.58137 6.00187H3.25004C2.67837 6.00187 2.18303 6.39119 2.05765 6.93918L0.0198776 15.8412C0.00668956 15.8988 0 15.9577 0 16.0168C0 16.4589 0.364804 16.8173 0.814789 16.8173H7.30621C7.3461 16.8173 7.38585 16.8211 7.42497 16.8287C7.75601 16.8932 7.97122 17.2091 7.90566 17.5343C7.71313 18.4892 7.58373 19.4334 7.5176 20.3667C7.32099 23.1418 8.06162 26.1804 10.291 28.5531C14.0843 32.5905 21.0874 32.8246 25.2304 30.5818C28.5614 28.7785 30.0263 25.4571 29.3161 22.6626Z" fill="white"/>
</svg>
