<svg width="32" height="32" viewBox="0 0 32 32" fill="none" xmlns="http://www.w3.org/2000/svg">
<path d="M20.911 0H11.088C2.12402 0 -0.000976562 2.125 -0.000976562 11.089V20.912C-0.000976562 29.876 2.12402 32.001 11.088 32.001H20.911C29.875 32.001 32 29.876 32 20.912V11.089C32 2.125 29.854 0 20.911 0ZM25.833 22.828H23.51C22.63 22.828 22.359 22.13 20.776 20.526C19.401 19.193 18.792 19.016 18.453 19.016C17.974 19.016 17.838 19.151 17.838 19.808V21.907C17.838 22.47 17.661 22.808 16.171 22.808C13.707 22.808 10.973 21.318 9.05602 18.542C6.16502 14.474 5.37402 11.427 5.37402 10.797C5.37402 10.458 5.50902 10.141 6.16002 10.141H8.48802C9.07702 10.141 9.30102 10.412 9.53002 11.042C10.681 14.365 12.598 17.276 13.389 17.276C13.681 17.276 13.816 17.141 13.816 16.396V12.964C13.727 11.381 12.894 11.245 12.894 10.683C12.894 10.412 13.118 10.141 13.477 10.141H17.138C17.633 10.141 17.815 10.412 17.815 10.995V15.625C17.815 16.125 18.039 16.302 18.174 16.302C18.466 16.302 18.716 16.125 19.257 15.583C20.929 13.708 22.127 10.817 22.127 10.817C22.283 10.478 22.554 10.161 23.143 10.161H25.471C26.169 10.161 26.325 10.52 26.169 11.02C25.877 12.374 23.028 16.395 23.028 16.395C22.783 16.801 22.689 16.978 23.028 17.431C23.278 17.77 24.091 18.473 24.632 19.103C25.627 20.233 26.392 21.181 26.596 21.837C26.825 22.488 26.487 22.827 25.83 22.827L25.833 22.828Z" fill="white"/>
</svg>
