<svg width="20" height="20" viewBox="0 0 20 20" fill="none" xmlns="http://www.w3.org/2000/svg">
<path d="M14.5833 7.24998H5.41667C5.17355 7.24998 4.94039 7.34656 4.76848 7.51846C4.59658 7.69037 4.5 7.92353 4.5 8.16665C4.5 8.40976 4.59658 8.64292 4.76848 8.81483C4.94039 8.98673 5.17355 9.08331 5.41667 9.08331H14.5833C14.8264 9.08331 15.0596 8.98673 15.2315 8.81483C15.4034 8.64292 15.5 8.40976 15.5 8.16665C15.5 7.92353 15.4034 7.69037 15.2315 7.51846C15.0596 7.34656 14.8264 7.24998 14.5833 7.24998ZM10.9167 10.9166H5.41667C5.17355 10.9166 4.94039 11.0132 4.76848 11.1851C4.59658 11.357 4.5 11.5902 4.5 11.8333C4.5 12.0764 4.59658 12.3096 4.76848 12.4815C4.94039 12.6534 5.17355 12.75 5.41667 12.75H10.9167C11.1598 12.75 11.3929 12.6534 11.5648 12.4815C11.7368 12.3096 11.8333 12.0764 11.8333 11.8333C11.8333 11.5902 11.7368 11.357 11.5648 11.1851C11.3929 11.0132 11.1598 10.9166 10.9167 10.9166ZM10 0.833313C8.79622 0.833313 7.60422 1.07042 6.49207 1.53108C5.37992 1.99175 4.36939 2.66696 3.51819 3.51817C1.7991 5.23725 0.833333 7.56883 0.833333 9.99998C0.825319 12.1167 1.55823 14.1695 2.905 15.8025L1.07167 17.6358C0.944471 17.7647 0.858308 17.9284 0.824049 18.1062C0.789789 18.2841 0.808968 18.468 0.879166 18.635C0.955302 18.7999 1.07873 18.9385 1.23378 19.0332C1.38882 19.1278 1.5685 19.1743 1.75 19.1666H10C12.4311 19.1666 14.7627 18.2009 16.4818 16.4818C18.2009 14.7627 19.1667 12.4311 19.1667 9.99998C19.1667 7.56883 18.2009 5.23725 16.4818 3.51817C14.7627 1.79908 12.4311 0.833313 10 0.833313ZM10 17.3333H3.95917L4.81167 16.4808C4.9824 16.3091 5.07823 16.0767 5.07823 15.8346C5.07823 15.5924 4.9824 15.3601 4.81167 15.1883C3.61137 13.9893 2.86391 12.4113 2.69663 10.723C2.52936 9.03477 2.95261 7.34073 3.89429 5.92954C4.83597 4.51835 6.23781 3.47731 7.86097 2.98379C9.48413 2.49027 11.2282 2.5748 12.796 3.22298C14.3639 3.87117 15.6584 5.0429 16.4592 6.53855C17.26 8.03419 17.5175 9.76123 17.1877 11.4254C16.8579 13.0896 15.9614 14.5879 14.6507 15.6652C13.3401 16.7425 11.6965 17.332 10 17.3333Z" fill="white"/>
</svg>
