<svg width="28" height="28" viewBox="0 0 28 28" fill="none" xmlns="http://www.w3.org/2000/svg">
<g clip-path="url(#clip0_887_319)">
<path d="M23.7037 5.24068C21.9187 4.43568 20.0054 3.84068 18.0046 3.50234C17.9867 3.49892 17.9683 3.50113 17.9518 3.50865C17.9353 3.51618 17.9215 3.52865 17.9124 3.54434C17.6674 3.97484 17.3944 4.53601 17.2031 4.97934C15.081 4.66229 12.9236 4.66229 10.8016 4.97934C10.5885 4.48801 10.3481 4.00894 10.0817 3.54434C10.0727 3.52846 10.059 3.5157 10.0426 3.50778C10.0261 3.49986 10.0076 3.49715 9.98956 3.50001C7.98989 3.83834 6.07656 4.43334 4.29039 5.23951C4.27503 5.24596 4.262 5.25695 4.25306 5.27101C0.622394 10.6085 -0.372773 15.8142 0.116061 20.9545C0.117421 20.9671 0.121329 20.9793 0.127546 20.9903C0.133764 21.0013 0.142161 21.011 0.152227 21.0187C2.27135 22.5615 4.63495 23.7368 7.14406 24.4953C7.16155 24.5007 7.18026 24.5007 7.19774 24.4953C7.21523 24.4899 7.23067 24.4793 7.24206 24.465C7.78199 23.7429 8.26044 22.9769 8.67239 22.1748C8.67811 22.1639 8.68141 22.1518 8.68206 22.1395C8.68271 22.1271 8.6807 22.1148 8.67616 22.1033C8.67162 22.0918 8.66467 22.0814 8.65577 22.0728C8.64687 22.0642 8.63622 22.0576 8.62456 22.0535C7.8709 21.7697 7.14066 21.4272 6.44056 21.0292C6.42798 21.022 6.41738 21.0118 6.40971 20.9995C6.40204 20.9872 6.39754 20.9732 6.39662 20.9588C6.39569 20.9443 6.39837 20.9299 6.40441 20.9167C6.41045 20.9035 6.41967 20.8921 6.43123 20.8833C6.57823 20.7748 6.72523 20.6617 6.86523 20.5485C6.87783 20.5383 6.89301 20.5319 6.90908 20.5298C6.92514 20.5277 6.94147 20.5302 6.95623 20.5368C11.5377 22.5948 16.4996 22.5948 21.0274 20.5368C21.0422 20.5298 21.0587 20.527 21.075 20.5289C21.0913 20.5307 21.1067 20.5371 21.1196 20.5473C21.2596 20.6617 21.4054 20.7748 21.5536 20.8833C21.5652 20.8919 21.5746 20.9032 21.5808 20.9162C21.5871 20.9293 21.59 20.9437 21.5893 20.9581C21.5886 20.9726 21.5843 20.9866 21.5769 20.999C21.5694 21.0114 21.559 21.0218 21.5466 21.0292C20.8489 21.4305 20.1232 21.77 19.3614 22.0523C19.3497 22.0566 19.339 22.0633 19.3301 22.072C19.3212 22.0807 19.3143 22.0912 19.3097 22.1028C19.3052 22.1144 19.3032 22.1268 19.3039 22.1392C19.3045 22.1516 19.3078 22.1638 19.3136 22.1748C19.7336 22.9763 20.2142 23.7393 20.7427 24.4638C20.7537 24.4787 20.769 24.4898 20.7866 24.4957C20.8041 24.5015 20.823 24.5018 20.8407 24.4965C23.3541 23.7401 25.7216 22.5642 27.8431 21.0187C27.8534 21.0114 27.8621 21.0021 27.8685 20.9912C27.875 20.9803 27.879 20.9682 27.8804 20.9557C28.4637 15.0127 26.9027 9.84901 23.7399 5.27334C23.7321 5.25847 23.7193 5.24688 23.7037 5.24068ZM9.35723 17.8243C7.97823 17.8243 6.84073 16.5772 6.84073 15.0477C6.84073 13.517 7.95606 12.271 9.35723 12.271C10.7689 12.271 11.8959 13.5275 11.8737 15.0477C11.8737 16.5783 10.7584 17.8243 9.35723 17.8243V17.8243ZM18.6614 17.8243C17.2812 17.8243 16.1449 16.5772 16.1449 15.0477C16.1449 13.517 17.2591 12.271 18.6614 12.271C20.0731 12.271 21.2001 13.5275 21.1779 15.0477C21.1779 16.5783 20.0742 17.8243 18.6614 17.8243V17.8243Z" fill="black"/>
</g>
<defs>
<clipPath id="clip0_887_319">
<rect width="28" height="28" fill="white"/>
</clipPath>
</defs>
</svg>
