<svg width="29" height="28" viewBox="0 0 29 28" fill="none" xmlns="http://www.w3.org/2000/svg">
<path fill-rule="evenodd" clip-rule="evenodd" d="M9.55031 1.24366C10.9188 1.18066 11.3551 1.16666 14.8411 1.16666C18.3271 1.16666 18.7635 1.18182 20.1308 1.24366C21.4981 1.30549 22.4315 1.52366 23.2481 1.83982C24.1033 2.16299 24.8791 2.66816 25.5208 3.32149C26.1741 3.96199 26.6781 4.73666 27.0001 5.59299C27.3175 6.40966 27.5345 7.34299 27.5975 8.70799C27.6605 10.0788 27.6745 10.5152 27.6745 14C27.6745 17.486 27.6593 17.9223 27.5975 19.2908C27.5356 20.6558 27.3175 21.5892 27.0001 22.4058C26.6781 23.2623 26.1733 24.0382 25.5208 24.6797C24.8791 25.333 24.1033 25.837 23.2481 26.159C22.4315 26.4763 21.4981 26.6933 20.1331 26.7563C18.7635 26.8193 18.3271 26.8333 14.8411 26.8333C11.3551 26.8333 10.9188 26.8182 9.55031 26.7563C8.18531 26.6945 7.25198 26.4763 6.43531 26.159C5.57889 25.8369 4.80294 25.3321 4.16148 24.6797C3.50859 24.0388 3.00335 23.2632 2.68098 22.407C2.36481 21.5903 2.14781 20.657 2.08481 19.292C2.02181 17.9212 2.00781 17.4848 2.00781 14C2.00781 10.514 2.02298 10.0777 2.08481 8.71032C2.14665 7.34299 2.36481 6.40966 2.68098 5.59299C3.00382 4.73675 3.50945 3.96119 4.16265 3.32032C4.80319 2.66757 5.57836 2.16234 6.43415 1.83982C7.25081 1.52366 8.18415 1.30666 9.54915 1.24366H9.55031ZM20.027 3.55366C18.6736 3.49182 18.2676 3.47899 14.8411 3.47899C11.4146 3.47899 11.0086 3.49182 9.65531 3.55366C8.40348 3.61082 7.72448 3.81966 7.27181 3.99582C6.67331 4.22916 6.24515 4.50566 5.79598 4.95482C5.3702 5.36905 5.04252 5.87332 4.83698 6.43066C4.66081 6.88332 4.45198 7.56232 4.39481 8.81416C4.33298 10.1675 4.32015 10.5735 4.32015 14C4.32015 17.4265 4.33298 17.8325 4.39481 19.1858C4.45198 20.4377 4.66081 21.1167 4.83698 21.5693C5.04231 22.1258 5.37015 22.631 5.79598 23.0452C6.21015 23.471 6.71531 23.7988 7.27181 24.0042C7.72448 24.1803 8.40348 24.3892 9.65531 24.4463C11.0086 24.5082 11.4135 24.521 14.8411 24.521C18.2688 24.521 18.6736 24.5082 20.027 24.4463C21.2788 24.3892 21.9578 24.1803 22.4105 24.0042C23.009 23.7708 23.4371 23.4943 23.8863 23.0452C24.3121 22.631 24.64 22.1258 24.8453 21.5693C25.0215 21.1167 25.2303 20.4377 25.2875 19.1858C25.3493 17.8325 25.3621 17.4265 25.3621 14C25.3621 10.5735 25.3493 10.1675 25.2875 8.81416C25.2303 7.56232 25.0215 6.88332 24.8453 6.43066C24.612 5.83216 24.3355 5.40399 23.8863 4.95482C23.4721 4.52907 22.9678 4.2014 22.4105 3.99582C21.9578 3.81966 21.2788 3.61082 20.027 3.55366V3.55366ZM13.202 17.9562C14.1174 18.3372 15.1368 18.3887 16.0859 18.1017C17.035 17.8147 17.8551 17.2071 18.406 16.3826C18.9569 15.5582 19.2045 14.568 19.1065 13.5813C19.0085 12.5946 18.571 11.6725 17.8686 10.9725C17.4209 10.525 16.8796 10.1824 16.2835 9.96933C15.6875 9.75622 15.0516 9.67791 14.4217 9.74004C13.7918 9.80217 13.1835 10.0032 12.6406 10.3286C12.0977 10.6541 11.6337 11.0959 11.282 11.6221C10.9303 12.1484 10.6997 12.7462 10.6067 13.3723C10.5138 13.9984 10.5608 14.6373 10.7444 15.2431C10.9281 15.8489 11.2437 16.4064 11.6687 16.8755C12.0936 17.3446 12.6173 17.7137 13.202 17.9562ZM10.1768 9.33566C10.7893 8.72313 11.5165 8.23724 12.3168 7.90574C13.1171 7.57425 13.9749 7.40363 14.8411 7.40363C15.7074 7.40363 16.5652 7.57425 17.3655 7.90574C18.1658 8.23724 18.8929 8.72313 19.5055 9.33566C20.118 9.94818 20.6039 10.6754 20.9354 11.4757C21.2669 12.276 21.4375 13.1337 21.4375 14C21.4375 14.8662 21.2669 15.724 20.9354 16.5243C20.6039 17.3246 20.118 18.0518 19.5055 18.6643C18.2684 19.9014 16.5906 20.5964 14.8411 20.5964C13.0917 20.5964 11.4139 19.9014 10.1768 18.6643C8.93975 17.4273 8.24478 15.7495 8.24478 14C8.24478 12.2505 8.93975 10.5727 10.1768 9.33566V9.33566ZM22.9005 8.38599C23.0523 8.2428 23.1738 8.07062 23.2578 7.87963C23.3419 7.68863 23.3868 7.48272 23.3898 7.27407C23.3928 7.06543 23.354 6.8583 23.2755 6.66493C23.1971 6.47157 23.0806 6.29592 22.9331 6.14837C22.7855 6.00082 22.6099 5.88437 22.4165 5.80593C22.2232 5.72748 22.016 5.68863 21.8074 5.69167C21.5987 5.69471 21.3928 5.73959 21.2018 5.82364C21.0109 5.90768 20.8387 6.0292 20.6955 6.18099C20.417 6.47619 20.2645 6.8683 20.2705 7.27407C20.2764 7.67985 20.4402 8.06735 20.7272 8.35431C21.0141 8.64126 21.4016 8.80509 21.8074 8.81101C22.2132 8.81692 22.6053 8.66446 22.9005 8.38599V8.38599Z" fill="black"/>
</svg>
