<svg width="29" height="28" viewBox="0 0 29 28" fill="none" xmlns="http://www.w3.org/2000/svg">
<path fill-rule="evenodd" clip-rule="evenodd" d="M9.55031 1.24369C10.9188 1.18069 11.3551 1.16669 14.8411 1.16669C18.3271 1.16669 18.7635 1.18185 20.1308 1.24369C21.4981 1.30552 22.4315 1.52369 23.2481 1.83985C24.1033 2.16302 24.8791 2.66819 25.5208 3.32152C26.1741 3.96202 26.6781 4.73669 27.0001 5.59302C27.3175 6.40969 27.5345 7.34302 27.5975 8.70802C27.6605 10.0789 27.6745 10.5152 27.6745 14C27.6745 17.486 27.6593 17.9224 27.5975 19.2909C27.5356 20.6559 27.3175 21.5892 27.0001 22.4059C26.6781 23.2623 26.1733 24.0383 25.5208 24.6797C24.8791 25.333 24.1033 25.837 23.2481 26.159C22.4315 26.4764 21.4981 26.6934 20.1331 26.7564C18.7635 26.8194 18.3271 26.8334 14.8411 26.8334C11.3551 26.8334 10.9188 26.8182 9.55031 26.7564C8.18531 26.6945 7.25198 26.4764 6.43531 26.159C5.57889 25.837 4.80294 25.3322 4.16148 24.6797C3.50859 24.0388 3.00335 23.2632 2.68098 22.407C2.36481 21.5904 2.14781 20.657 2.08481 19.292C2.02181 17.9212 2.00781 17.4849 2.00781 14C2.00781 10.514 2.02298 10.0777 2.08481 8.71035C2.14665 7.34302 2.36481 6.40969 2.68098 5.59302C3.00382 4.73678 3.50945 3.96122 4.16265 3.32035C4.80319 2.6676 5.57836 2.16237 6.43415 1.83985C7.25081 1.52369 8.18415 1.30669 9.54915 1.24369H9.55031ZM20.027 3.55369C18.6736 3.49185 18.2676 3.47902 14.8411 3.47902C11.4146 3.47902 11.0086 3.49185 9.65531 3.55369C8.40348 3.61085 7.72448 3.81969 7.27181 3.99585C6.67331 4.22919 6.24515 4.50569 5.79598 4.95485C5.3702 5.36908 5.04252 5.87335 4.83698 6.43069C4.66081 6.88335 4.45198 7.56235 4.39481 8.81419C4.33298 10.1675 4.32015 10.5735 4.32015 14C4.32015 17.4265 4.33298 17.8325 4.39481 19.1859C4.45198 20.4377 4.66081 21.1167 4.83698 21.5694C5.04231 22.1259 5.37015 22.631 5.79598 23.0452C6.21015 23.471 6.71531 23.7989 7.27181 24.0042C7.72448 24.1804 8.40348 24.3892 9.65531 24.4464C11.0086 24.5082 11.4135 24.521 14.8411 24.521C18.2688 24.521 18.6736 24.5082 20.027 24.4464C21.2788 24.3892 21.9578 24.1804 22.4105 24.0042C23.009 23.7709 23.4371 23.4944 23.8863 23.0452C24.3121 22.631 24.64 22.1259 24.8453 21.5694C25.0215 21.1167 25.2303 20.4377 25.2875 19.1859C25.3493 17.8325 25.3621 17.4265 25.3621 14C25.3621 10.5735 25.3493 10.1675 25.2875 8.81419C25.2303 7.56235 25.0215 6.88335 24.8453 6.43069C24.612 5.83219 24.3355 5.40402 23.8863 4.95485C23.4721 4.5291 22.9678 4.20143 22.4105 3.99585C21.9578 3.81969 21.2788 3.61085 20.027 3.55369V3.55369ZM13.202 17.9562C14.1174 18.3373 15.1368 18.3887 16.0859 18.1017C17.035 17.8147 17.8551 17.2071 18.406 16.3826C18.9569 15.5582 19.2045 14.568 19.1065 13.5813C19.0085 12.5946 18.571 11.6725 17.8686 10.9725C17.4209 10.5251 16.8796 10.1825 16.2835 9.96936C15.6875 9.75625 15.0516 9.67794 14.4217 9.74007C13.7918 9.8022 13.1835 10.0032 12.6406 10.3287C12.0977 10.6541 11.6337 11.0959 11.282 11.6222C10.9303 12.1485 10.6997 12.7462 10.6067 13.3723C10.5138 13.9984 10.5608 14.6374 10.7444 15.2431C10.9281 15.8489 11.2437 16.4064 11.6687 16.8755C12.0936 17.3447 12.6173 17.7137 13.202 17.9562ZM10.1768 9.33569C10.7893 8.72316 11.5165 8.23727 12.3168 7.90578C13.1171 7.57428 13.9749 7.40366 14.8411 7.40366C15.7074 7.40366 16.5652 7.57428 17.3655 7.90577C18.1658 8.23727 18.8929 8.72316 19.5055 9.33569C20.118 9.94822 20.6039 10.6754 20.9354 11.4757C21.2669 12.276 21.4375 13.1338 21.4375 14C21.4375 14.8663 21.2669 15.724 20.9354 16.5243C20.6039 17.3246 20.118 18.0518 19.5055 18.6644C18.2684 19.9014 16.5906 20.5964 14.8411 20.5964C13.0917 20.5964 11.4139 19.9014 10.1768 18.6644C8.93975 17.4273 8.24478 15.7495 8.24478 14C8.24478 12.2506 8.93975 10.5727 10.1768 9.33569V9.33569ZM22.9005 8.38602C23.0523 8.24283 23.1738 8.07065 23.2578 7.87966C23.3419 7.68866 23.3868 7.48275 23.3898 7.27411C23.3928 7.06546 23.354 6.85833 23.2755 6.66497C23.1971 6.4716 23.0806 6.29595 22.9331 6.1484C22.7855 6.00085 22.6099 5.8844 22.4165 5.80596C22.2232 5.72751 22.016 5.68866 21.8074 5.6917C21.5987 5.69474 21.3928 5.73962 21.2018 5.82367C21.0109 5.90772 20.8387 6.02923 20.6955 6.18102C20.417 6.47622 20.2645 6.86833 20.2705 7.27411C20.2764 7.67988 20.4402 8.06738 20.7272 8.35434C21.0141 8.64129 21.4016 8.80512 21.8074 8.81104C22.2132 8.81695 22.6053 8.66449 22.9005 8.38602V8.38602Z" fill="white"/>
</svg>
