<svg width="19" height="24" viewBox="0 0 19 24" fill="none" xmlns="http://www.w3.org/2000/svg">
<path d="M18.5 12C18.5 11.6906 18.3815 11.3938 18.1705 11.175C17.9595 10.9562 17.6734 10.8333 17.375 10.8333H8.83625L11.4237 8.16165C11.5286 8.05287 11.6118 7.92373 11.6686 7.7816C11.7254 7.63948 11.7546 7.48715 11.7546 7.33331C11.7546 7.17948 11.7254 7.02715 11.6686 6.88502C11.6118 6.7429 11.5286 6.61376 11.4237 6.50498C11.3189 6.3962 11.1943 6.30991 11.0573 6.25104C10.9202 6.19217 10.7733 6.16187 10.625 6.16187C10.4767 6.16187 10.3298 6.19217 10.1927 6.25104C10.0557 6.30991 9.93114 6.3962 9.82625 6.50498L5.32625 11.1716C5.22383 11.2826 5.14354 11.4134 5.09 11.5566C4.97748 11.8407 4.97748 12.1593 5.09 12.4433C5.14354 12.5865 5.22383 12.7174 5.32625 12.8283L9.82625 17.495C9.93083 17.6043 10.0553 17.6911 10.1924 17.7504C10.3294 17.8096 10.4765 17.8401 10.625 17.8401C10.7735 17.8401 10.9206 17.8096 11.0576 17.7504C11.1947 17.6911 11.3192 17.6043 11.4237 17.495C11.5292 17.3865 11.6129 17.2575 11.67 17.1153C11.7271 16.9732 11.7565 16.8207 11.7565 16.6666C11.7565 16.5126 11.7271 16.3601 11.67 16.218C11.6129 16.0758 11.5292 15.9468 11.4237 15.8383L8.83625 13.1666H17.375C17.6734 13.1666 17.9595 13.0437 18.1705 12.8249C18.3815 12.6061 18.5 12.3094 18.5 12ZM15.125 0.333313H3.875C2.97989 0.333313 2.12145 0.702062 1.48851 1.35844C0.855579 2.01482 0.5 2.90506 0.5 3.83331V20.1666C0.5 21.0949 0.855579 21.9851 1.48851 22.6415C2.12145 23.2979 2.97989 23.6666 3.875 23.6666H15.125C16.0201 23.6666 16.8786 23.2979 17.5115 22.6415C18.1444 21.9851 18.5 21.0949 18.5 20.1666V16.6666C18.5 16.3572 18.3815 16.0605 18.1705 15.8417C17.9595 15.6229 17.6734 15.5 17.375 15.5C17.0766 15.5 16.7905 15.6229 16.5795 15.8417C16.3685 16.0605 16.25 16.3572 16.25 16.6666V20.1666C16.25 20.4761 16.1315 20.7728 15.9205 20.9916C15.7095 21.2104 15.4234 21.3333 15.125 21.3333H3.875C3.57663 21.3333 3.29048 21.2104 3.0795 20.9916C2.86853 20.7728 2.75 20.4761 2.75 20.1666V3.83331C2.75 3.52389 2.86853 3.22715 3.0795 3.00836C3.29048 2.78956 3.57663 2.66665 3.875 2.66665H15.125C15.4234 2.66665 15.7095 2.78956 15.9205 3.00836C16.1315 3.22715 16.25 3.52389 16.25 3.83331V7.33331C16.25 7.64273 16.3685 7.93948 16.5795 8.15827C16.7905 8.37706 17.0766 8.49998 17.375 8.49998C17.6734 8.49998 17.9595 8.37706 18.1705 8.15827C18.3815 7.93948 18.5 7.64273 18.5 7.33331V3.83331C18.5 2.90506 18.1444 2.01482 17.5115 1.35844C16.8786 0.702062 16.0201 0.333313 15.125 0.333313Z" fill="white"/>
</svg>
