<svg width="28" height="28" viewBox="0 0 28 28" fill="none" xmlns="http://www.w3.org/2000/svg">
<path d="M0 14C0 19.9768 3.74617 25.0798 9.01833 27.0877C8.89 25.9945 8.7535 24.192 9.0475 22.9273C9.30067 21.84 10.682 15.9997 10.682 15.9997C10.682 15.9997 10.2655 15.1655 10.2655 13.93C10.2655 11.9933 11.3878 10.5467 12.7867 10.5467C13.9767 10.5467 14.5507 11.4392 14.5507 12.509C14.5507 13.7048 13.7888 15.4922 13.3957 17.15C13.0678 18.5372 14.0922 19.6688 15.4595 19.6688C17.9363 19.6688 19.8415 17.0567 19.8415 13.286C19.8415 9.94817 17.4428 7.616 14.0187 7.616C10.0543 7.616 7.72683 10.5898 7.72683 13.664C7.72683 14.8622 8.18767 16.1455 8.764 16.8443C8.81313 16.8971 8.84785 16.9617 8.86481 17.0317C8.88177 17.1018 8.8804 17.1751 8.86083 17.2445C8.75467 17.6855 8.519 18.6317 8.4735 18.8253C8.41167 19.0797 8.27167 19.1345 8.00683 19.0108C6.26617 18.2012 5.17883 15.6567 5.17883 13.6127C5.17883 9.2155 8.372 5.17883 14.3862 5.17883C19.2208 5.17883 22.9787 8.624 22.9787 13.2277C22.9787 18.0308 19.9512 21.8972 15.7465 21.8972C14.3337 21.8972 13.0072 21.1622 12.5522 20.2953C12.5522 20.2953 11.8533 22.9577 11.6842 23.6087C11.3552 24.8733 10.4428 26.474 9.877 27.3828C11.1813 27.7842 12.565 28 14 28C21.7315 28 28 21.7315 28 14C28 6.2685 21.7315 0 14 0C6.2685 0 0 6.2685 0 14Z" fill="white"/>
</svg>
