<svg width="28" height="28" viewBox="0 0 28 28" fill="none" xmlns="http://www.w3.org/2000/svg">
<path d="M16.811 19.6782C16.0152 20.2619 15.0292 20.5254 14.0483 20.4167C13.0687 20.5257 12.0839 20.2625 11.2892 19.6794C11.1809 19.5709 11.0522 19.4848 10.9107 19.426C10.7691 19.3673 10.6173 19.337 10.464 19.3369C10.3107 19.3368 10.1589 19.3668 10.0172 19.4254C9.87556 19.484 9.74682 19.5699 9.63835 19.6782C9.41928 19.8969 9.29609 20.1938 9.29587 20.5034C9.29576 20.6567 9.32584 20.8085 9.38441 20.9501C9.44297 21.0918 9.52886 21.2205 9.63718 21.329C10.2404 21.8484 10.9414 22.2416 11.699 22.4857C12.4566 22.7298 13.2555 22.8196 14.0483 22.75C14.8413 22.8193 15.6401 22.7294 16.3978 22.4855C17.1556 22.2417 17.8569 21.8489 18.4607 21.3302C18.5692 21.2219 18.6552 21.0932 18.714 20.9517C18.7728 20.8101 18.8031 20.6583 18.8032 20.505C18.8033 20.3517 18.7732 20.1999 18.7146 20.0582C18.6561 19.9166 18.5702 19.7878 18.4618 19.6794C18.3535 19.5709 18.2249 19.4848 18.0833 19.426C17.9417 19.3673 17.79 19.337 17.6367 19.3369C17.4834 19.3368 17.3316 19.3668 17.1899 19.4254C17.0482 19.484 16.9195 19.5699 16.811 19.6782V19.6782ZM10.7327 17.5024C10.9634 17.5024 11.189 17.4339 11.3808 17.3057C11.5727 17.1775 11.7222 16.9953 11.8105 16.7822C11.8988 16.569 11.9219 16.3344 11.8769 16.1081C11.8319 15.8818 11.7208 15.6739 11.5576 15.5107C11.3945 15.3476 11.1866 15.2365 10.9603 15.1914C10.734 15.1464 10.4994 15.1695 10.2862 15.2578C10.073 15.3461 9.89083 15.4957 9.76263 15.6875C9.63444 15.8794 9.56602 16.1049 9.56602 16.3357C9.56602 16.6451 9.68893 16.9419 9.90772 17.1606C10.1265 17.3794 10.4233 17.5024 10.7327 17.5024ZM17.7327 15.169C17.5019 15.169 17.2764 15.2374 17.0845 15.3656C16.8927 15.4938 16.7431 15.676 16.6548 15.8892C16.5665 16.1024 16.5434 16.337 16.5884 16.5633C16.6334 16.7896 16.7446 16.9975 16.9077 17.1606C17.0709 17.3238 17.2788 17.4349 17.5051 17.4799C17.7314 17.525 17.966 17.5018 18.1791 17.4135C18.3923 17.3252 18.5745 17.1757 18.7027 16.9839C18.8309 16.792 18.8993 16.5664 18.8993 16.3357C18.899 16.0264 18.776 15.7298 18.5573 15.5111C18.3386 15.2923 18.042 15.1693 17.7327 15.169ZM26.8327 13.7434C26.8343 12.8183 26.5444 11.9163 26.0042 11.1654C25.464 10.4146 24.7008 9.85303 23.8233 9.56059C22.9457 9.26815 21.9983 9.25968 21.1156 9.5364C20.2329 9.81311 19.4599 10.3609 18.9063 11.102C17.7403 10.805 16.549 10.6179 15.348 10.5432L16.3467 3.88735L18.7815 4.71569C18.7914 5.64302 19.1693 6.52843 19.832 7.17715C20.4947 7.82587 21.388 8.18475 22.3153 8.17485C23.2427 8.16495 24.1281 7.78708 24.7768 7.12435C25.4255 6.46163 25.7844 5.56835 25.7745 4.64102V4.61419C25.7522 3.69782 25.3746 2.826 24.7216 2.18276C24.0685 1.53952 23.1911 1.17519 22.2745 1.16669C21.7486 1.17064 21.2304 1.29399 20.7591 1.52741C20.2878 1.76084 19.8757 2.09825 19.5538 2.51419L15.775 1.22969C15.6134 1.17446 15.4415 1.15546 15.2717 1.17401C15.1019 1.19256 14.9382 1.24822 14.7923 1.33705C14.6463 1.42587 14.5217 1.54569 14.4272 1.68802C14.3328 1.83036 14.2707 1.99172 14.2455 2.16069L12.989 10.5315C11.6742 10.5893 10.3686 10.7804 9.09235 11.102C8.41455 10.1956 7.41326 9.58556 6.29696 9.39887C5.18066 9.21217 4.03536 9.46322 3.09951 10.0998C2.16366 10.7363 1.50938 11.7092 1.27287 12.8161C1.03637 13.9229 1.23587 15.0783 1.82985 16.0417C1.39992 16.8503 1.17215 17.7509 1.16602 18.6667C1.16602 23.2459 6.80335 26.8334 13.9993 26.8334C21.1953 26.8334 26.8327 23.2459 26.8327 18.6667C26.8264 17.7513 26.5986 16.8511 26.1688 16.0429C26.5975 15.3525 26.8272 14.5571 26.8327 13.7445V13.7434ZM22.2745 3.50002C22.5053 3.50002 22.7308 3.56844 22.9227 3.69664C23.1145 3.82483 23.2641 4.00704 23.3524 4.22022C23.4407 4.4334 23.4638 4.66798 23.4188 4.89429C23.3737 5.1206 23.2626 5.32848 23.0995 5.49164C22.9363 5.65481 22.7284 5.76592 22.5021 5.81094C22.2758 5.85595 22.0412 5.83285 21.828 5.74455C21.6149 5.65624 21.4327 5.50671 21.3045 5.31485C21.1763 5.12299 21.1078 4.89743 21.1078 4.66669C21.113 4.35886 21.2375 4.06507 21.4552 3.84737C21.6729 3.62968 21.9667 3.50512 22.2745 3.50002V3.50002ZM5.57602 11.6667C5.93876 11.6713 6.2938 11.7719 6.60502 11.9584C5.47891 12.4423 4.4363 13.101 3.51568 13.9102C3.51102 13.8554 3.49935 13.7994 3.49935 13.7434C3.50027 13.1929 3.71936 12.6652 4.10861 12.276C4.49786 11.8867 5.02553 11.6676 5.57602 11.6667V11.6667ZM13.9993 24.5C8.30718 24.5 3.49935 21.8284 3.49935 18.6667C3.49935 15.505 8.30718 12.8334 13.9993 12.8334C19.6915 12.8334 24.4993 15.505 24.4993 18.6667C24.4993 21.8284 19.6915 24.5 13.9993 24.5ZM24.483 13.9102C23.5624 13.101 22.5198 12.4423 21.3937 11.9584C21.7049 11.7719 22.0599 11.6713 22.4227 11.6667C22.9732 11.6676 23.5008 11.8867 23.8901 12.276C24.2793 12.6652 24.4984 13.1929 24.4993 13.7434C24.4993 13.7994 24.4877 13.8554 24.483 13.9102Z" fill="white"/>
</svg>
