<svg width="29" height="28" viewBox="0 0 29 28" fill="none" xmlns="http://www.w3.org/2000/svg">
<path d="M6.67513 24.5C6.03346 24.5 5.48396 24.2717 5.02663 23.8152C4.57007 23.3578 4.3418 22.8083 4.3418 22.1667C4.3418 21.525 4.57007 20.9755 5.02663 20.5182C5.48396 20.0616 6.03346 19.8333 6.67513 19.8333C7.3168 19.8333 7.86591 20.0616 8.32246 20.5182C8.7798 20.9755 9.00846 21.525 9.00846 22.1667C9.00846 22.8083 8.7798 23.3578 8.32246 23.8152C7.86591 24.2717 7.3168 24.5 6.67513 24.5ZM22.396 24.5C21.9293 24.5 21.526 24.3347 21.1861 24.0042C20.8455 23.6736 20.646 23.2653 20.5876 22.7792C20.3932 20.8736 19.883 19.0847 19.057 17.4125C18.2302 15.7403 17.1705 14.2575 15.8778 12.964C14.5844 11.6713 13.1015 10.6116 11.4293 9.78484C9.75707 8.95884 7.96819 8.44862 6.06263 8.25418C5.57652 8.19584 5.16819 7.99168 4.83763 7.64168C4.50707 7.29168 4.3418 6.87362 4.3418 6.38751C4.3418 5.9014 4.51213 5.49773 4.8528 5.17651C5.19269 4.85607 5.59596 4.71529 6.06263 4.75418C8.4543 4.94862 10.7001 5.5514 12.8001 6.56251C14.9001 7.57362 16.752 8.88145 18.3558 10.486C19.9604 12.0898 21.2682 13.9417 22.2793 16.0417C23.2904 18.1417 23.8932 20.3875 24.0876 22.7792C24.1265 23.2458 23.9807 23.6491 23.6501 23.989C23.3196 24.3297 22.9015 24.5 22.396 24.5V24.5ZM15.396 24.5C14.9487 24.5 14.5455 24.3394 14.1861 24.0182C13.826 23.6977 13.5974 23.2847 13.5001 22.7792C13.1501 20.8931 12.2946 19.2695 10.9335 17.9083C9.57235 16.5472 7.94874 15.6917 6.06263 15.3417C5.55707 15.2445 5.14407 15.0111 4.82363 14.6417C4.50241 14.2722 4.3418 13.8542 4.3418 13.3875C4.3418 12.882 4.5168 12.4736 4.8668 12.1625C5.2168 11.8514 5.61541 11.725 6.06263 11.7833C8.94041 12.1722 11.3955 13.3825 13.4278 15.414C15.4594 17.4463 16.6696 19.9014 17.0585 22.7792C17.1168 23.2264 16.9807 23.625 16.6501 23.975C16.3196 24.325 15.9015 24.5 15.396 24.5V24.5Z" fill="white"/>
</svg>
