<svg width="22" height="21" viewBox="0 0 22 21" fill="none" xmlns="http://www.w3.org/2000/svg">
<path d="M21.6425 19.1354L17.6023 15.3021C19.1706 13.4317 19.9301 11.0576 19.7246 8.66804C19.5191 6.27846 18.3642 4.055 16.4975 2.45486C14.6308 0.854716 12.194 -0.000487871 9.68832 0.0650959C7.18262 0.13068 4.79842 1.11207 3.02596 2.80746C1.2535 4.50286 0.227509 6.7834 0.158944 9.18015C0.0903796 11.5769 0.984457 13.9077 2.65733 15.6933C4.33021 17.4788 6.65474 18.5835 9.15294 18.78C11.6511 18.9766 14.1331 18.2501 16.0885 16.75L20.0961 20.5834C20.1974 20.681 20.3178 20.7585 20.4505 20.8114C20.5832 20.8643 20.7256 20.8915 20.8693 20.8915C21.0131 20.8915 21.1554 20.8643 21.2881 20.8114C21.4208 20.7585 21.5413 20.681 21.6425 20.5834C21.8388 20.3891 21.9485 20.1295 21.9485 19.8594C21.9485 19.5893 21.8388 19.3297 21.6425 19.1354ZM9.97917 16.75C8.47146 16.75 6.99761 16.3224 5.744 15.5212C4.49039 14.7199 3.51331 13.5811 2.93634 12.2488C2.35936 10.9164 2.2084 9.45027 2.50254 8.03582C2.79668 6.62138 3.52271 5.32213 4.58882 4.30237C5.65493 3.28261 7.01324 2.58815 8.49198 2.3068C9.97072 2.02545 11.5035 2.16985 12.8964 2.72173C14.2893 3.27362 15.4799 4.20821 16.3176 5.40732C17.1552 6.60643 17.6023 8.0162 17.6023 9.45836C17.6023 11.3922 16.7991 13.2469 15.3695 14.6143C13.9399 15.9818 12.0009 16.75 9.97917 16.75Z" fill="white"/>
</svg>
