<svg width="29" height="28" viewBox="0 0 29 28" fill="none" xmlns="http://www.w3.org/2000/svg">
<g clip-path="url(#clip0_794_262)">
<path d="M25.6516 19.8297C25.1556 17.8782 23.668 16.5757 21.5729 16.5914C19.5219 16.6067 18.3833 17.8876 18.2301 19.3071C18.1172 20.3539 18.5242 21.1944 19.1143 21.5381C20.1992 22.17 20.9611 21.0936 20.5382 20.694C20.266 20.4367 20.1398 20.219 20.1992 19.8298C20.2586 19.4406 20.5612 19.0512 21.2755 19.0512C21.9899 19.0512 22.5916 19.5526 22.7198 20.5904C22.871 21.8147 22.0514 23.1405 20.6049 23.4408C18.7736 23.8211 16.9266 22.861 16.272 21.315C15.6175 19.769 15.7951 17.3583 17.3609 15.884C18.6012 14.7161 20.2064 14.2858 21.5728 14.2858L26.1438 14.4829C26.4821 14.4975 26.7842 14.2763 26.8666 13.9536L28.8205 6.1225C28.8347 6.06674 28.8419 6.00957 28.8419 5.95211C28.8419 5.56529 28.5682 5.25169 28.1744 5.25169H19.8169C19.7898 5.25169 19.7629 5.24868 19.7366 5.24271C19.5448 5.19911 19.4252 5.01104 19.4696 4.82258L20.4029 0.858376C20.4152 0.806621 20.4213 0.75366 20.4213 0.700535C20.4213 0.313601 20.1021 0 19.7083 0H11.0587C10.5754 0 10.1521 0.318475 10.0262 0.776937L9.07205 4.73369C8.9881 5.03935 8.70591 5.25163 8.38369 5.25163H2.84379C2.34358 5.25163 1.91015 5.59229 1.80044 6.07178L0.0173929 13.861C0.00585337 13.9115 0 13.963 0 14.0147C0 14.4015 0.319204 14.7151 0.71294 14.7151H6.39294C6.42783 14.7151 6.46262 14.7185 6.49685 14.7252C6.78651 14.7816 6.97482 15.058 6.91745 15.3426C6.74899 16.1781 6.63577 17.0042 6.5779 17.8209C6.40587 20.249 7.05392 22.9079 9.0046 24.984C12.3237 28.5167 18.4514 28.7216 22.0766 26.7591C24.9913 25.1812 26.273 22.275 25.6516 19.8297Z" fill="white"/>
</g>
<defs>
<clipPath id="clip0_794_262">
<rect width="28.8421" height="28" fill="white"/>
</clipPath>
</defs>
</svg>
