<svg width="28" height="28" viewBox="0 0 28 28" fill="none" xmlns="http://www.w3.org/2000/svg">
<g clip-path="url(#clip0_887_340)">
<path fill-rule="evenodd" clip-rule="evenodd" d="M27.3583 6.93934C27.552 6.30234 27.3583 5.83334 26.4308 5.83334H23.3683C22.589 5.83334 22.2297 6.23818 22.0348 6.68501C22.0348 6.68501 20.4773 10.4137 18.2712 12.8357C17.5572 13.538 17.2328 13.7608 16.8432 13.7608C16.6483 13.7608 16.3555 13.538 16.3555 12.8998V6.93934C16.3555 6.17401 16.1408 5.83334 15.4922 5.83334H10.6762C10.1897 5.83334 9.89683 6.18801 9.89683 6.52518C9.89683 7.24968 11.0005 7.41768 11.1137 9.45701V13.888C11.1137 14.8598 10.9352 15.036 10.5455 15.036C9.50717 15.036 6.98133 11.2898 5.48217 7.00351C5.19167 6.16934 4.89767 5.83334 4.11483 5.83334H1.05C0.175 5.83334 0 6.23818 0 6.68501C0 7.48068 1.03833 11.4333 4.83583 16.6612C7.3675 20.2312 10.9317 22.1667 14.1785 22.1667C16.1257 22.1667 16.366 21.7373 16.366 20.9965V18.298C16.366 17.4382 16.5503 17.2667 17.1675 17.2667C17.6225 17.2667 18.4007 17.4907 20.2183 19.2115C22.295 21.252 22.6368 22.1667 23.8058 22.1667H26.8683C27.7433 22.1667 28.182 21.7373 27.93 20.888C27.6523 20.0433 26.6607 18.8172 25.3458 17.3623C24.6318 16.534 23.5608 15.6415 23.2353 15.1947C22.7815 14.6218 22.911 14.3663 23.2353 13.8565C23.2353 13.8565 26.9687 8.69284 27.3572 6.93934H27.3583Z" fill="black"/>
</g>
<defs>
<clipPath id="clip0_887_340">
<rect width="28" height="28" fill="white"/>
</clipPath>
</defs>
</svg>
