<svg width="28" height="18" viewBox="0 0 28 18" fill="none" xmlns="http://www.w3.org/2000/svg">
<path fill-rule="evenodd" clip-rule="evenodd" d="M27.3583 1.93931C27.552 1.30231 27.3583 0.833313 26.4308 0.833313H23.3683C22.589 0.833313 22.2297 1.23815 22.0348 1.68498C22.0348 1.68498 20.4773 5.41365 18.2712 7.83565C17.5572 8.53798 17.2328 8.76081 16.8432 8.76081C16.6483 8.76081 16.3555 8.53798 16.3555 7.89981V1.93931C16.3555 1.17398 16.1408 0.833313 15.4922 0.833313H10.6762C10.1897 0.833313 9.89683 1.18798 9.89683 1.52515C9.89683 2.24965 11.0005 2.41765 11.1137 4.45698V8.88798C11.1137 9.85981 10.9352 10.036 10.5455 10.036C9.50717 10.036 6.98133 6.28981 5.48217 2.00348C5.19167 1.16931 4.89767 0.833313 4.11483 0.833313H1.05C0.175 0.833313 0 1.23815 0 1.68498C0 2.48065 1.03833 6.43331 4.83583 11.6611C7.3675 15.2311 10.9317 17.1666 14.1785 17.1666C16.1257 17.1666 16.366 16.7373 16.366 15.9965V13.298C16.366 12.4381 16.5503 12.2666 17.1675 12.2666C17.6225 12.2666 18.4007 12.4906 20.2183 14.2115C22.295 16.252 22.6368 17.1666 23.8058 17.1666H26.8683C27.7433 17.1666 28.182 16.7373 27.93 15.888C27.6523 15.0433 26.6607 13.8171 25.3458 12.3623C24.6318 11.534 23.5608 10.6415 23.2353 10.1946C22.7815 9.62181 22.911 9.36631 23.2353 8.85648C23.2353 8.85648 26.9687 3.69281 27.3572 1.93931H27.3583Z" fill="white"/>
</svg>
