<svg width="28" height="28" viewBox="0 0 28 28" fill="none" xmlns="http://www.w3.org/2000/svg">
<rect width="28" height="28" fill="black"/>
<path d="M16.7 16.7C14.5 18.97 14.34 21.8 14.15 28C19.93 28 23.92 27.98 25.98 25.98C27.98 23.92 28 19.74 28 14.15C21.8 14.35 18.97 14.5 16.7 16.7M0 14.15C0 19.74 0.02 23.92 2.02 25.98C4.08 27.98 8.07 28 13.85 28C13.65 21.8 13.5 18.97 11.3 16.7C9.03 14.5 6.2 14.34 0 14.15M13.85 0C8.08 0 4.08 0.02 2.02 2.02C0.02 4.08 0 8.26 0 13.85C6.2 13.65 9.03 13.5 11.3 11.3C13.5 9.03 13.66 6.2 13.85 0M16.7 11.3C14.5 9.03 14.34 6.2 14.15 0C19.93 0 23.92 0.02 25.98 2.02C27.98 4.08 28 8.26 28 13.85C21.8 13.65 18.97 13.5 16.7 11.3" fill="white"/>
<path d="M28 14.15V13.85C21.8 13.65 18.97 13.5 16.7 11.3C14.5 9.03 14.34 6.2 14.15 0H13.85C13.65 6.2 13.5 9.03 11.3 11.3C9.03 13.5 6.2 13.66 0 13.85V14.15C6.2 14.35 9.03 14.5 11.3 16.7C13.5 18.97 13.66 21.8 13.85 28H14.15C14.35 21.8 14.5 18.97 16.7 16.7C18.97 14.5 21.8 14.34 28 14.15" fill="#2C3036"/>
</svg>
