<svg width="28" height="28" viewBox="0 0 28 28" fill="none" xmlns="http://www.w3.org/2000/svg">
<path d="M26.8332 11.3283C26.8909 9.65844 26.5257 8.00103 25.7715 6.51001C25.2598 5.89821 24.5497 5.48534 23.7649 5.34335C20.5186 5.04879 17.259 4.92806 13.9999 4.98168C10.7526 4.92563 7.5047 5.04246 4.26987 5.33168C3.63033 5.44801 3.03847 5.74799 2.56654 6.19501C1.51654 7.16335 1.39987 8.82001 1.2832 10.22C1.11393 12.7372 1.11393 15.2629 1.2832 17.78C1.31695 18.568 1.43428 19.3501 1.6332 20.1133C1.77387 20.7026 2.05848 21.2478 2.46154 21.7C2.93668 22.1707 3.54232 22.4878 4.19987 22.61C6.7151 22.9205 9.24946 23.0492 11.7832 22.995C15.8665 23.0533 19.4482 22.995 23.6832 22.6683C24.3569 22.5536 24.9796 22.2361 25.4682 21.7583C25.7948 21.4316 26.0388 21.0316 26.1799 20.5917C26.5971 19.3114 26.802 17.9715 26.7865 16.625C26.8332 15.9717 26.8332 12.0283 26.8332 11.3283V11.3283ZM11.3632 17.325V10.1033L18.2699 13.7317C16.3332 14.805 13.7782 16.0183 11.3632 17.325Z" fill="black"/>
</svg>
