<svg width="26" height="27" viewBox="0 0 26 27" fill="none" xmlns="http://www.w3.org/2000/svg">
<g clip-path="url(#clip0_1522_625)">
<path d="M15.5071 15.9502C13.4643 18.1183 13.3157 20.8212 13.1393 26.7429C18.5064 26.7429 22.2114 26.7238 24.1243 24.8136C25.9814 22.846 26 18.8537 26 13.5147C20.2429 13.7057 17.615 13.849 15.5071 15.9502ZM0 13.5147C0 18.8537 0.0185714 22.846 1.87571 24.8136C3.78857 26.7238 7.49357 26.7429 12.8607 26.7429C12.675 20.8212 12.5357 18.1183 10.4929 15.9502C8.385 13.849 5.75714 13.6962 0 13.5147ZM12.8607 0C7.50286 0 3.78857 0.019102 1.87571 1.92931C0.0185714 3.89682 0 7.88914 0 13.2282C5.75714 13.0371 8.385 12.8939 10.4929 10.7927C12.5357 8.62457 12.6843 5.92163 12.8607 0ZM15.5071 10.7927C13.4643 8.62457 13.3157 5.92163 13.1393 0C18.5064 0 22.2114 0.019102 24.1243 1.92931C25.9814 3.89682 26 7.88914 26 13.2282C20.2429 13.0371 17.615 12.8939 15.5071 10.7927Z" fill="#D3355B"/>
</g>
<defs>
<clipPath id="clip0_1522_625">
<rect width="26" height="26.7429" fill="white"/>
</clipPath>
</defs>
</svg>
