<svg width="30" height="27" viewBox="0 0 30 27" fill="none" xmlns="http://www.w3.org/2000/svg">
<path d="M29.7601 0.169037C29.6643 0.0862204 29.5477 0.031186 29.4228 0.0098888C29.298 -0.0114084 29.1697 0.00184284 29.0518 0.0482085L0.905767 11.063C0.618842 11.1744 0.375893 11.376 0.213538 11.6375C0.0511833 11.899 -0.0217789 12.2062 0.00564839 12.5127C0.0330757 12.8193 0.159406 13.1086 0.365599 13.3371C0.571792 13.5656 0.846674 13.7209 1.14881 13.7796L8.89016 15.299V23.8875C8.89012 24.2198 8.98939 24.5445 9.17524 24.8199C9.3611 25.0954 9.62504 25.309 9.93318 25.4333C10.1315 25.5128 10.3431 25.5538 10.5568 25.5541C10.7804 25.5536 11.0016 25.5081 11.2073 25.4203C11.413 25.3325 11.5989 25.2042 11.7539 25.043L15.6427 21.0154L21.6146 26.2527C21.9174 26.5197 22.3068 26.6678 22.7104 26.6693C22.8867 26.6686 23.0619 26.641 23.2299 26.5874C23.5048 26.5004 23.7521 26.3427 23.9471 26.1302C24.142 25.9177 24.2778 25.6578 24.3409 25.3763L29.9824 0.849565C30.0106 0.726646 30.0049 0.598353 29.9657 0.478459C29.9266 0.358564 29.8555 0.251596 29.7601 0.169037ZM1.1127 12.413C1.10456 12.3458 1.11969 12.2779 1.15558 12.2205C1.19147 12.1631 1.24594 12.1198 1.30992 12.0977L25.5659 2.60505L9.31653 14.2504L1.36408 12.6894C1.29668 12.6795 1.23478 12.6465 1.18894 12.5961C1.14311 12.5458 1.11616 12.481 1.1127 12.413ZM10.9554 24.2708C10.8786 24.35 10.7799 24.4044 10.6721 24.4273C10.5642 24.4502 10.452 24.4405 10.3497 24.3994C10.2473 24.3583 10.1596 24.2876 10.0975 24.1965C10.0355 24.1053 10.0019 23.9978 10.0012 23.8875V16.0684L14.8038 20.2766L10.9554 24.2708ZM23.2576 25.1236C23.2361 25.2179 23.1904 25.305 23.1249 25.3762C23.0595 25.4474 22.9766 25.5002 22.8844 25.5296C22.7922 25.5589 22.694 25.5636 22.5994 25.5433C22.5048 25.523 22.4172 25.4784 22.3452 25.4138L10.3387 14.8851L28.6296 1.7773L23.2576 25.1236Z" fill="white"/>
<path d="M29.7601 0.169037C29.6643 0.0862204 29.5477 0.031186 29.4228 0.0098888C29.298 -0.0114084 29.1697 0.00184284 29.0518 0.0482085L0.905767 11.063C0.618842 11.1744 0.375893 11.376 0.213538 11.6375C0.0511833 11.899 -0.0217789 12.2062 0.00564839 12.5127C0.0330757 12.8193 0.159406 13.1086 0.365599 13.3371C0.571792 13.5656 0.846674 13.7209 1.14881 13.7796L8.89016 15.299V23.8875C8.89012 24.2198 8.98939 24.5445 9.17524 24.8199C9.3611 25.0954 9.62504 25.309 9.93318 25.4333C10.1315 25.5128 10.3431 25.5538 10.5568 25.5541C10.7804 25.5536 11.0016 25.5081 11.2073 25.4203C11.413 25.3325 11.5989 25.2042 11.7539 25.043L15.6427 21.0154L21.6146 26.2527C21.9174 26.5197 22.3068 26.6678 22.7104 26.6693C22.8867 26.6686 23.0619 26.641 23.2299 26.5874C23.5048 26.5004 23.7521 26.3427 23.9471 26.1302C24.142 25.9177 24.2778 25.6578 24.3409 25.3763L29.9824 0.849565C30.0106 0.726646 30.0049 0.598353 29.9657 0.478459C29.9266 0.358564 29.8555 0.251596 29.7601 0.169037ZM1.1127 12.413C1.10456 12.3458 1.11969 12.2779 1.15558 12.2205C1.19147 12.1631 1.24594 12.1198 1.30992 12.0977L25.5659 2.60505L9.31653 14.2504L1.36408 12.6894C1.29668 12.6795 1.23478 12.6465 1.18894 12.5961C1.14311 12.5458 1.11616 12.481 1.1127 12.413ZM10.9554 24.2708C10.8786 24.35 10.7799 24.4044 10.6721 24.4273C10.5642 24.4502 10.452 24.4405 10.3497 24.3994C10.2473 24.3583 10.1596 24.2876 10.0975 24.1965C10.0355 24.1053 10.0019 23.9978 10.0012 23.8875V16.0684L14.8038 20.2766L10.9554 24.2708ZM23.2576 25.1236C23.2361 25.2179 23.1904 25.305 23.1249 25.3762C23.0595 25.4474 22.9766 25.5002 22.8844 25.5296C22.7922 25.5589 22.694 25.5636 22.5994 25.5433C22.5048 25.523 22.4172 25.4784 22.3452 25.4138L10.3387 14.8851L28.6296 1.7773L23.2576 25.1236Z" fill="#D3355B"/>
</svg>
