<svg width="30" height="18" viewBox="0 0 30 18" fill="none" xmlns="http://www.w3.org/2000/svg">
<path fill-rule="evenodd" clip-rule="evenodd" d="M29.3119 1.18498C29.5194 0.502489 29.3119 0 28.3182 0H25.037C24.202 0 23.817 0.433741 23.6083 0.912481C23.6083 0.912481 21.9395 4.9074 19.5758 7.50234C18.8109 8.25483 18.4634 8.49357 18.0459 8.49357C17.8371 8.49357 17.5234 8.25483 17.5234 7.57109V1.18498C17.5234 0.364992 17.2934 0 16.5984 0H11.4385C10.9173 0 10.6035 0.379992 10.6035 0.741234C10.6035 1.51747 11.786 1.69746 11.9073 3.88242V8.62982C11.9073 9.67105 11.716 9.85979 11.2985 9.85979C10.186 9.85979 7.47984 5.84613 5.87363 1.25372C5.56238 0.359992 5.24739 0 4.40866 0H1.12498C0.187496 0 0 0.433741 0 0.912481C0 1.76496 1.11248 5.99988 5.18114 11.601C7.89358 15.4259 11.7123 17.4996 15.1909 17.4996C17.2771 17.4996 17.5346 17.0396 17.5346 16.2459V13.3547C17.5346 12.4335 17.7321 12.2497 18.3934 12.2497C18.8809 12.2497 19.7146 12.4897 21.662 14.3334C23.887 16.5197 24.2532 17.4996 25.5057 17.4996H28.7869C29.7244 17.4996 30.1944 17.0396 29.9244 16.1297C29.6269 15.2247 28.5644 13.911 27.1557 12.3522C26.3907 11.4648 25.2432 10.5085 24.8945 10.0298C24.4082 9.41605 24.547 9.14231 24.8945 8.59607C24.8945 8.59607 28.8944 3.06369 29.3106 1.18498H29.3119Z" fill="#D3355B"/>
</svg>
